<svg xmlns="http://www.w3.org/2000/svg" viewBox="0 -0.5 101 32" shape-rendering="crispEdges">
<metadata>Made with Pixels to Svg https://codepen.io/shshaw/pen/XbxvNj</metadata>
<path stroke="#000000" d="M2 0h3M9 0h2M18 0h3M24 0h8M35 0h9M47 0h8M60 0h3M75 0h11M90 0h9M1 1h1M5 1h1M8 1h1M11 1h1M17 1h1M21 1h1M23 1h1M32 1h1M34 1h1M44 1h1M46 1h1M55 1h1M59 1h1M63 1h1M74 1h1M86 1h1M89 1h1M99 1h1M1 2h1M5 2h1M8 2h1M12 2h1M17 2h1M21 2h1M23 2h1M32 2h1M34 2h1M44 2h1M46 2h1M56 2h1M59 2h1M63 2h1M74 2h1M86 2h1M89 2h1M99 2h1M1 3h1M5 3h1M8 3h1M12 3h1M17 3h1M21 3h1M23 3h1M32 3h1M34 3h1M44 3h1M46 3h1M56 3h1M59 3h1M63 3h1M74 3h1M86 3h1M89 3h1M99 3h1M1 4h1M5 4h1M8 4h1M13 4h1M17 4h1M21 4h1M24 4h2M30 4h2M34 4h1M38 4h6M46 4h1M50 4h3M56 4h1M59 4h1M63 4h1M74 4h1M78 4h5M86 4h1M89 4h1M93 4h6M1 5h1M5 5h1M8 5h1M13 5h1M17 5h1M21 5h1M25 5h1M30 5h1M34 5h1M38 5h1M46 5h1M50 5h1M52 5h1M56 5h1M59 5h1M63 5h1M74 5h1M78 5h1M82 5h1M86 5h1M89 5h1M93 5h1M1 6h1M5 6h1M8 6h1M14 6h1M17 6h1M21 6h1M25 6h1M30 6h1M34 6h1M38 6h1M46 6h1M50 6h3M56 6h1M59 6h1M63 6h1M74 6h1M78 6h1M82 6h1M86 6h1M89 6h1M93 6h1M1 7h1M5 7h1M8 7h1M14 7h1M17 7h1M21 7h1M25 7h1M30 7h1M34 7h1M38 7h1M46 7h1M56 7h1M59 7h1M63 7h1M74 7h1M78 7h1M82 7h1M86 7h1M89 7h1M93 7h1M1 8h1M5 8h1M8 8h1M15 8h1M17 8h1M21 8h1M25 8h1M30 8h1M34 8h1M38 8h1M46 8h1M56 8h1M59 8h1M63 8h1M74 8h1M78 8h1M82 8h1M86 8h1M89 8h1M93 8h6M1 9h1M5 9h1M8 9h1M15 9h1M17 9h1M21 9h1M25 9h1M30 9h1M34 9h1M38 9h5M46 9h1M55 9h1M59 9h1M63 9h1M74 9h1M78 9h5M86 9h1M89 9h1M99 9h1M1 10h1M5 10h1M8 10h1M16 10h2M21 10h1M25 10h1M30 10h1M34 10h1M43 10h1M46 10h1M50 10h5M59 10h1M63 10h1M74 10h1M86 10h1M89 10h1M99 10h1M1 11h1M5 11h1M8 11h1M16 11h2M21 11h1M25 11h1M30 11h1M34 11h1M43 11h1M46 11h1M50 11h1M59 11h1M63 11h1M74 11h1M86 11h1M89 11h1M99 11h1M1 12h1M5 12h1M8 12h1M12 12h1M17 12h1M21 12h1M25 12h1M30 12h1M34 12h1M43 12h1M46 12h1M50 12h1M59 12h1M63 12h1M74 12h1M86 12h1M90 12h6M99 12h1M1 13h1M5 13h1M8 13h1M12 13h1M17 13h1M21 13h1M25 13h1M30 13h1M34 13h1M38 13h5M46 13h1M50 13h1M59 13h1M63 13h1M74 13h1M78 13h5M86 13h1M95 13h1M99 13h1M1 14h1M5 14h1M8 14h1M12 14h2M21 14h1M25 14h1M30 14h1M34 14h1M38 14h1M46 14h1M50 14h1M59 14h1M63 14h1M74 14h1M78 14h1M82 14h1M86 14h1M95 14h1M99 14h1M1 15h1M5 15h1M8 15h1M12 15h2M21 15h1M25 15h1M30 15h1M34 15h1M38 15h1M46 15h1M50 15h1M59 15h1M63 15h1M74 15h1M78 15h1M82 15h1M86 15h1M95 15h1M99 15h1M1 16h1M5 16h1M8 16h1M12 16h1M14 16h1M21 16h1M25 16h1M30 16h1M34 16h1M38 16h1M46 16h1M50 16h1M59 16h1M63 16h1M74 16h1M78 16h1M82 16h1M86 16h1M95 16h1M99 16h1M1 17h1M5 17h1M8 17h1M12 17h1M14 17h1M21 17h1M25 17h1M30 17h1M34 17h1M38 17h1M46 17h1M50 17h1M59 17h1M63 17h1M74 17h1M78 17h1M82 17h1M86 17h1M95 17h1M99 17h1M1 18h1M5 18h1M8 18h1M12 18h1M15 18h1M21 18h1M25 18h1M30 18h1M34 18h1M38 18h1M46 18h1M50 18h1M59 18h1M63 18h1M74 18h1M78 18h1M82 18h1M86 18h1M95 18h1M99 18h1M1 19h1M5 19h1M8 19h1M12 19h1M15 19h1M21 19h1M25 19h1M30 19h1M34 19h1M38 19h6M46 19h1M50 19h1M59 19h1M63 19h8M74 19h1M78 19h1M82 19h1M86 19h1M90 19h6M99 19h1M1 20h1M5 20h1M8 20h1M12 20h1M16 20h1M21 20h1M25 20h1M30 20h1M34 20h1M44 20h1M46 20h1M50 20h1M59 20h1M71 20h1M74 20h1M78 20h1M82 20h1M86 20h1M89 20h1M99 20h1M1 21h1M5 21h1M8 21h1M12 21h1M16 21h1M21 21h1M25 21h1M30 21h1M34 21h1M44 21h1M46 21h1M50 21h1M59 21h1M71 21h1M74 21h1M78 21h1M82 21h1M86 21h1M89 21h1M99 21h1M1 22h1M5 22h1M8 22h1M12 22h1M17 22h1M21 22h1M25 22h1M30 22h1M34 22h1M44 22h1M46 22h1M50 22h1M59 22h1M71 22h1M74 22h1M78 22h1M82 22h1M86 22h1M89 22h1M99 22h1M2 23h3M9 23h3M18 23h3M26 23h4M35 23h9M47 23h3M60 23h11M75 23h3M83 23h3M90 23h9" />
<path stroke="#508ca4" d="M2 1h1M18 1h3M24 1h4M41 1h3M18 2h3M24 2h2M41 2h3M18 3h3M40 3h4M12 4h1M18 4h3M11 5h2M18 5h3M37 5h1M10 6h4M18 6h2M36 6h2M9 7h5M18 7h1M35 7h3M9 8h6M35 8h3M9 9h6M35 9h3M9 10h6M29 10h1M35 10h8M9 11h5M27 11h3M35 11h8M9 12h3M26 12h4M35 12h8M4 13h1M9 13h3M26 13h4M35 13h3M3 14h2M9 14h2M26 14h4M35 14h3M2 15h3M9 15h1M26 15h4M35 15h3M2 16h3M26 16h4M35 16h3M2 17h3M19 17h2M26 17h4M35 17h3M2 18h3M18 18h3M26 18h4M35 18h3M2 19h3M17 19h4M26 19h4M35 19h3M2 20h3M17 20h4M26 20h4M35 20h8M2 21h3M17 21h4M26 21h4M35 21h7M2 22h2M18 22h3M26 22h4M35 22h6" />
<path stroke="#407083" d="M3 1h2M9 1h2M28 1h4M35 1h6M2 2h3M9 2h3M26 2h6M35 2h6M2 3h3M9 3h3M24 3h8M35 3h5M2 4h3M9 4h3M26 4h4M35 4h3M2 5h3M9 5h2M26 5h4M35 5h2M2 6h3M9 6h1M20 6h1M26 6h4M35 6h1M2 7h3M19 7h2M26 7h4M2 8h3M18 8h3M26 8h4M2 9h3M18 9h3M26 9h4M2 10h3M15 10h1M18 10h3M26 10h3M2 11h3M14 11h2M18 11h3M26 11h1M2 12h3M13 12h4M18 12h3M2 13h2M13 13h4M18 13h3M2 14h1M11 14h1M14 14h7M10 15h2M14 15h7M9 16h3M15 16h6M9 17h3M15 17h4M9 18h3M16 18h2M9 19h3M16 19h1M9 20h3M43 20h1M9 21h3M42 21h2M4 22h1M9 22h3M41 22h3" />
<path stroke="#0a8754" d="M47 1h8M60 1h3M75 1h11M47 2h9M60 2h3M75 2h11M47 3h9M60 3h1M75 3h11M47 4h3M53 4h3M75 4h3M83 4h3M47 5h3M53 5h3M75 5h3M83 5h3M47 6h3M53 6h3M75 6h3M83 6h3M47 7h9M75 7h3M83 7h2M47 8h8M75 8h3M83 8h1M47 9h7M75 9h3M94 9h5M47 10h3M75 10h7M93 10h6M47 11h3M75 11h6M92 11h7M47 12h3M62 12h1M75 12h5M96 12h3M47 13h3M61 13h2M75 13h3M96 13h3M47 14h2M60 14h3M75 14h3M96 14h3M47 15h1M60 15h3M75 15h2M96 15h3M60 16h3M75 16h1M96 16h3M60 17h3M75 17h1M96 17h3M60 18h3M85 18h1M96 18h3M60 19h3M84 19h2M96 19h3M60 20h11M84 20h2M90 20h9M60 21h11M83 21h3M90 21h9M60 22h11M83 22h3M90 22h9" />
<path stroke="#086c43" d="M90 1h9M90 2h9M61 3h2M90 3h9M60 4h3M90 4h3M60 5h3M90 5h3M60 6h3M90 6h3M60 7h3M85 7h1M90 7h3M55 8h1M60 8h3M84 8h2M90 8h3M54 9h1M60 9h3M83 9h3M90 9h4M60 10h3M82 10h4M90 10h3M60 11h3M81 11h5M90 11h2M60 12h2M80 12h6M60 13h1M83 13h3M49 14h1M83 14h3M48 15h2M77 15h1M83 15h3M47 16h3M76 16h2M83 16h3M47 17h3M76 17h2M83 17h3M47 18h3M75 18h3M83 18h2M47 19h3M75 19h3M83 19h1M47 20h3M75 20h3M83 20h1M47 21h3M75 21h3M47 22h3M75 22h3" />
</svg>